<svg id="Layer_1" data-name="Layer 1" xmlns="http://www.w3.org/2000/svg" viewBox="0 0 50 50"><defs><style>.cls-1{fill:#5a3673;}.cls-2{fill:#fff;}</style></defs><title>chatadd</title><path class="cls-1" d="M25.15,49.48a23.82,23.82,0,0,1-12.78-3.72A1.35,1.35,0,0,0,11,45.57c-2.24.79-4.64,1.6-7.58,2.54-.06,0-1.53.48-2.15-.34a2.45,2.45,0,0,1-.24-2.07c.73-2.35,1.61-5.11,2.58-7.81a2,2,0,0,0-.12-1.75A24.18,24.18,0,0,1,14.09,3.29,24.45,24.45,0,0,1,25.18.61h0a24.43,24.43,0,0,1,3,48.69A25.48,25.48,0,0,1,25.15,49.48Z"/><path class="cls-2" d="M26.06,15.81v7.76h7.46v2H26.06v7.82H23.94V25.55H16.49v-2h7.46V15.81Z"/></svg>