<?xml version="1.0" standalone="no"?>
<!DOCTYPE svg PUBLIC "-//W3C//DTD SVG 20010904//EN"
 "http://www.w3.org/TR/2001/REC-SVG-20010904/DTD/svg10.dtd">
<svg version="1.0" xmlns="http://www.w3.org/2000/svg"
 width="694.000000pt" height="694.000000pt" viewBox="0 0 694.000000 694.000000"
 preserveAspectRatio="xMidYMid meet">
<metadata>
Created by potrace 1.11, written by Peter Selinger 2001-2013
</metadata>
<g transform="translate(0.000000,694.000000) scale(0.100000,-0.100000)"
fill="#000000" stroke="none">
<path d="M3190 6658 c-363 -34 -756 -151 -1111 -328 -325 -162 -578 -346 -844
-614 -434 -437 -736 -1001 -860 -1605 -45 -218 -57 -334 -60 -606 -4 -292 6
-414 56 -670 220 -1129 1053 -2068 2149 -2423 357 -116 635 -158 1025 -156
309 1 514 31 805 115 555 161 1011 428 1405 824 547 549 870 1249 932 2018 11
133 8 435 -6 562 -68 639 -289 1181 -691 1697 -90 116 -375 400 -497 496 -591
466 -1290 708 -2023 701 -107 -2 -233 -6 -280 -11z m545 -1284 c946 -129 1655
-915 1679 -1859 20 -769 -415 -1474 -1109 -1800 -169 -80 -400 -147 -584 -170
-131 -16 -341 -12 -485 10 -952 143 -1655 963 -1645 1920 1 162 9 235 40 389
99 492 429 964 861 1232 231 143 498 241 763 279 116 17 353 17 480 -1z"/>
</g>
</svg>
